<svg xmlns="http://www.w3.org/2000/svg" version="1.1" xmlns:xlink="http://www.w3.org/1999/xlink" viewBox="0 0 200 200"><rect width="200" height="200" fill="url('#gradient')"></rect><defs><linearGradient id="gradient" gradientTransform="rotate(0 0.5 0.5)"><stop offset="0%" stop-color="#a67400"></stop><stop offset="100%" stop-color="#965100"></stop></linearGradient></defs><g><g fill="#000000" transform="matrix(5.333333333333333,0,0,5.333333333333333,3.120935082435608,137.89770634969074)" stroke="#efefef" stroke-width="0"><path d="M6.74-4.46L6.74-14.22L10.16-14.22L10.16-4.46Q10.16-3.11 9.53-2.04Q8.90-0.98 7.77-0.39Q6.64 0.20 5.25 0.20L5.25 0.20Q2.93 0.20 1.64-0.98Q0.35-2.15 0.35-4.30L0.35-4.30L3.79-4.30Q3.79-3.32 4.13-2.88Q4.46-2.44 5.25-2.44L5.25-2.44Q5.97-2.44 6.35-2.97Q6.74-3.51 6.74-4.46L6.74-4.46ZM18.09 0L12.31 0L12.31-14.22L17.42-14.22Q20.17-14.22 21.60-13.21Q23.03-12.21 23.03-10.29L23.03-10.29Q23.03-9.19 22.52-8.41Q22.01-7.63 21.03-7.26L21.03-7.26Q22.14-6.96 22.73-6.16Q23.33-5.36 23.33-4.21L23.33-4.21Q23.33-2.12 22.01-1.07Q20.68-0.02 18.09 0L18.09 0ZM18.14-6.04L15.74-6.04L15.74-2.64L17.99-2.64Q18.92-2.64 19.41-3.06Q19.91-3.49 19.91-4.26L19.91-4.26Q19.91-6.04 18.14-6.04L18.14-6.04ZM15.74-11.57L15.74-8.29L17.53-8.29Q18.65-8.30 19.13-8.70Q19.61-9.10 19.61-9.88L19.61-9.88Q19.61-10.78 19.09-11.18Q18.57-11.57 17.42-11.57L17.42-11.57L15.74-11.57ZM32.55-3.78L32.55-3.78Q32.55-4.53 32.02-4.95Q31.48-5.37 30.15-5.82Q28.81-6.27 27.96-6.69L27.96-6.69Q25.20-8.05 25.20-10.42L25.20-10.42Q25.20-11.60 25.88-12.50Q26.57-13.41 27.83-13.91Q29.09-14.41 30.66-14.41L30.66-14.41Q32.20-14.41 33.41-13.87Q34.63-13.32 35.30-12.31Q35.98-11.30 35.98-10L35.98-10L32.56-10Q32.56-10.87 32.03-11.35Q31.49-11.83 30.59-11.83L30.59-11.83Q29.67-11.83 29.14-11.42Q28.60-11.02 28.60-10.39L28.60-10.39Q28.60-9.84 29.19-9.40Q29.78-8.96 31.25-8.48Q32.72-8.01 33.67-7.46L33.67-7.46Q35.98-6.13 35.98-3.80L35.98-3.80Q35.98-1.93 34.57-0.87Q33.16 0.20 30.71 0.20L30.71 0.20Q28.98 0.20 27.58-0.42Q26.18-1.04 25.47-2.12Q24.77-3.20 24.77-4.61L24.77-4.61L28.20-4.61Q28.20-3.47 28.79-2.92Q29.38-2.38 30.71-2.38L30.71-2.38Q31.56-2.38 32.06-2.75Q32.55-3.12 32.55-3.78Z"></path></g></g></svg>